<?xml version="1.0" encoding="UTF-8"?>
<!DOCTYPE svg PUBLIC "-//W3C//DTD SVG 1.1//EN" "http://www.w3.org/Graphics/SVG/1.1/DTD/svg11.dtd">
<!-- Creator: CorelDRAW -->
<svg xmlns="http://www.w3.org/2000/svg" xml:space="preserve" width="2048px" height="2048px" style="shape-rendering:geometricPrecision; text-rendering:geometricPrecision; image-rendering:optimizeQuality; fill-rule:evenodd; clip-rule:evenodd"
viewBox="0 0 2048 2048"
 xmlns:xlink="http://www.w3.org/1999/xlink">
 <defs>
  <style type="text/css">
   <![CDATA[
    .fil2 {fill:none}
    .fil1 {fill:#424242}
    .fil0 {fill:#424242;fill-rule:nonzero}
   ]]>
  </style>
 </defs>
 <g id="Layer_x0020_1">
  <metadata id="CorelCorpID_0Corel-Layer"/>
  <g id="_86716072">
   <path id="_86663040" class="fil0" d="M1234.08 365.605c-1.10433,17.6043 -16.2709,30.9803 -33.8752,29.876 -17.6043,-1.10433 -30.9803,-16.2709 -29.876,-33.8752 0.148819,-2.35394 0.131102,-4.40906 -0.0448819,-6.17008 -0.944883,-9.48898 -7.48583,-16.539 -17.2772,-21.6732 -14.7874,-7.75394 -35.8666,-11.7555 -59.0292,-13.2248 -20.804,-1.31929 -42.7028,-0.519685 -63.3189,1.53425 -65.5371,6.53268 -113.125,25.4882 -155.149,42.2268 -45.1335,17.9764 -84.6308,33.704 -133.676,32.9847 -11.6976,45.4099 -15.9543,99.2859 -5.54174,145.552 8.61497,38.276 27.6319,70.7481 61.656,86.0493 16.0843,7.24843 23.2477,26.1662 15.9992,42.2504 -7.24843,16.0843 -26.1662,23.2477 -42.2504,15.9992 -54.978,-24.7252 -84.8965,-73.6064 -97.656,-130.298 -14.9858,-66.5882 -5.52402,-144.76 14.2713,-203.356l0.00354331 0.0011811c4.73268,-14.1886 18.9862,-23.5075 34.3725,-21.5008 46.2024,6.17363 84.4572,-9.06261 129.323,-26.9327 45.9969,-18.3213 98.0835,-39.0685 172.397,-46.4764 23.961,-2.38819 49.4067,-3.31772 73.5686,-1.78465 31.1587,1.97599 60.9532,8.11418 84.5292,20.4768 28.5721,14.9835 47.902,38.0398 51.2788,71.9221 0.538583,5.39882 0.646063,10.8756 0.295276,16.4197z"/>
   <path id="_86661808" class="fil0" d="M1183.11 545.506c0.140551,-4.65827 1.30866,-9.35788 3.60945,-13.7658 8.14489,-15.6012 27.3981,-21.6449 42.9992,-13.5 10.9748,5.75079 30.2398,34.3075 42.3945,65.4686 11.9043,-22.0382 18.1547,-44.8713 20.2736,-67.9997 3.91418,-42.7252 -5.76497,-87.7194 -20.1945,-131.239l-0.340158 -0.496063c-3.50906,-5.07402 -7.60985,-7.73977 -11.9669,-8.22284 -6.80788,-0.754725 -15.4748,1.87323 -25.3087,7.52835 -2.08701,1.2 -4.48583,2.7378 -7.18229,4.60276 -14.4969,10.0099 -34.3654,6.37205 -44.3752,-8.12481 -10.0099,-14.4969 -6.37205,-34.3654 8.12481,-44.3752 3.62126,-2.50394 7.5189,-4.95827 11.6823,-7.35237 21.776,-12.5221 43.65,-18.0425 64.0583,-15.7795 22.8579,2.53465 42.6555,14.0599 57.4678,35.4733 1.1374,1.6441 2.33858,3.52914 3.60236,5.65867 1.47874,2.25236 2.69528,4.72796 3.59055,7.40316 17.4673,51.7075 29.3221,106.324 24.3425,160.674 -5.17678,56.5241 -28.1032,111.354 -80.6044,160.215l-0.0236221 -0.0259843c-6.93426,6.44292 -16.6536,9.74883 -26.726,8.15079 -8.51221,-1.35118 -15.698,-5.95512 -20.4957,-12.3413l-0.0425197 -1.24134 -0.114567 -2.9752 -0.0921261 -2.06575 -0.131102 -2.59488 -0.119291 -2.13898 -0.132284 -2.14725 -0.168898 -2.48504 -0.164173 -2.20984 -0.193701 -2.39292 -0.178347 -2.04331 -0.236221 -2.50748 -0.167717 -1.66181c-0.0992127,-0.960237 -0.20315,-1.91339 -0.31063,-2.86181l-0.140551 -1.22244c-0.131102,-1.11969 -0.269292,-2.22756 -0.412205,-3.32835l-0.112205 -0.848032c-0.152362,-1.14095 -0.309449,-2.27008 -0.473622,-3.38977l-0.100394 -0.673229c-0.170079,-1.13622 -0.348425,-2.25945 -0.531496,-3.37205l-0.0944883 -0.576378c-0.194882,-1.16457 -0.398032,-2.31496 -0.608268,-3.45236l-0.068504 -0.37441c-0.218504,-1.17638 -0.446457,-2.33504 -0.681497,-3.47953l-0.0720473 -0.349607c-0.239764,-1.15866 -0.490158,-2.29843 -0.746457,-3.42402l-0.0637796 -0.277559c-0.262205,-1.13976 -0.532678,-2.26299 -0.812599,-3.36733l-0.0472441 -0.18189c-0.284646,-1.11969 -0.578741,-2.21929 -0.882284,-3.30118l-0.0448819 -0.159449c-0.307087,-1.08898 -0.624804,-2.15788 -0.950788,-3.2067l-0.0295276 -0.0968505c-0.334252,-1.07244 -0.677953,-2.12244 -1.03347,-3.15118l-0.6 -1.72441 -0.0366142 -0.105118 -0.121654 -0.346063 -0.523229 -1.47402 -0.00944883 -0.0248032 -0.635434 -1.76339 -0.0188977 -0.0507874 -0.624804 -1.69961 -0.0472441 -0.12874 -0.109843 -0.295276 -0.407481 -1.08543 -0.0330709 -0.0885827 -0.26811 -0.7063 -0.109843 -0.290551 -0.415748 -1.08425 -0.0389764 -0.101575 -0.068504 -0.175984 -0.572835 -1.46811 -0.0696851 -0.178347 -0.0956694 -0.242126 -0.431103 -1.08071 -0.198425 -0.494882 -0.0791339 -0.193701 -0.596457 -1.46929 -0.0625985 -0.151181 -0.676772 -1.62638 -0.0755906 -0.183071 -0.080315 -0.190158 -0.630709 -1.48228 -0.0968505 -0.22441 -0.651969 -1.50473 -0.0874016 -0.199606 -0.114567 -0.257481 -0.569292 -1.27913 -0.113386 -0.255118 -0.0625985 -0.138189 -0.681497 -1.49646 -0.124016 -0.270473 -0.654331 -1.40669 -0.115748 -0.246851 -0.0885827 -0.186614 -0.688583 -1.44331 -0.0661418 -0.137008 -0.0425197 -0.0874016 -0.715749 -1.46339 -0.193701 -0.394488 -0.694489 -1.38662 -0.233858 -0.459449 -0.746457 -1.45039 -0.0200788 -0.0389764 -0.745276 -1.41614 -0.231496 -0.433465 -0.703938 -1.30158 -0.282284 -0.514961 -0.791339 -1.42677 -0.00590552 -0.00944883 -0.793701 -1.3937 -0.290551 -0.50315 -0.728741 -1.24606 -0.308268 -0.517323 -0.709843 -1.1811 -0.0767717 -0.126378 -0.0330709 -0.0555119 -0.134646 -0.216142 -0.777166 -1.25669 -0.168898 -0.270473 -0.864568 -1.35709 -0.265748 -0.411024 -0.745276 -1.13858 -0.344882 -0.517323 -0.780709 -1.15748 -0.159449 -0.232677 -0.890552 -1.28386 -0.340158 -0.480709 -0.843308 -1.17874 -0.253937 -0.348425 -0.831497 -1.12677 -0.137008 -0.185433 -0.115748 -0.153543 -0.889371 -1.16575 -0.292914 -0.379134c-0.325985,-0.419292 -0.651969,-0.837402 -0.982678,-1.25197l-0.198425 -0.246851 -0.823229 -1.01457 -0.431103 -0.52441 -0.812599 -0.969686 -0.383859 -0.451181c-0.333071,-0.389764 -0.670867,-0.779528 -1.00984,-1.16457l-0.206693 -0.233858c-0.323622,-0.367323 -0.650788,-0.728741 -0.977954,-1.09016l-0.148819 -0.166536 -0.0578741 -0.0625985z"/>
   <path id="_86661024" class="fil0" d="M1091.49 478.704c4.34882,-17.1201 21.7559,-27.4736 38.876,-23.1248 17.1201,4.34882 27.4736,21.7559 23.1248,38.876 -0.774804,3.02835 -1.92402,6.38268 -3.41811,10.0311 -2.10945,5.14725 -4.79764,10.0205 -7.99843,14.6339l-0.71693 -0.218504c-26.8713,34.3453 -82.8638,53.6138 -143.143,61.78 -57.4902,7.79056 -120.741,6.15827 -162.715,-1.82362 -9.8752,27.4925 -15.1488,66.7217 -16.552,108.771 -4.75394,6.53977 -11.974,11.2902 -20.5784,12.724 -17.3965,2.89843 -33.8516,-8.85355 -36.75,-26.25 -8.37638,-49.5059 15.5138,-110.242 24.6851,-133.558 0.251575,-0.638977 0.643701,-0.944883 1.14213,-0.982678 0.340158,-2.76496 1.05118,-5.53111 2.16142,-8.23229 6.69567,-16.2921 25.3335,-24.0709 41.6256,-17.3752 2.83347,1.16102 6.21615,2.24055 10.063,3.22677 33.3685,8.55237 93.4205,10.761 148.88,3.24567 49.1575,-6.66024 92.4674,-19.6288 100.895,-40.1918 0.0448819,-0.109843 0.183071,-0.614174 0.418111,-1.53189z"/>
   <path id="_86660464" class="fil0" d="M760.241 676.464c0,-17.6728 14.328,-32.0008 32.0008,-32.0008 12.15,0 22.7185,6.77363 28.1386,16.748 -6.47008,84.7323 4.73741,190.191 26.9563,234.414 23.4614,46.6985 71.9977,74.2867 169.204,74.2867 97.8391,0 150.07,-30.1382 177.186,-79.8532 22.9571,-42.091 40.1079,-158.336 32.8902,-235.759 5.03504,-11.0693 16.1917,-18.7654 29.1437,-18.7654 17.6728,0 32.0008,14.328 32.0008,32.0008 0,97.7316 -5.36457,184.745 -41.1508,250.358 -37.9949,69.6627 -106.271,111.893 -229.943,111.893 -124.295,0 -188.862,-40.2685 -223.108,-108.429 -32.0044,-63.6957 -33.3177,-147.618 -33.3177,-244.893z"/>
   <path id="_86658952" class="fil1" d="M1056.52 1160.09l6.83623 -25.5532 161.706 28.3925c19.1138,2.80158 29.0563,-6.49371 36.3319,-23.4012 6.79961,-15.802 8.35394,-35.8902 6.95197,-52.8993 -1.28268,-15.5599 -5.72835,-34.9736 -14.7508,-47.9504 -7.27442,-10.4634 -14.2961,-15.5539 -26.9126,-10.9146l-161.071 70.989 -10.7445 -25.226c-8.10591,-1.55079 -24.6815,-1.40788 -30.8847,-1.40788 -6.30119,0 -22.2154,-0.227953 -30.5528,1.10315l-10.6925 23.4543 -161.444 -70.3666c-12.9236,-4.70079 -20.276,0.359055 -27.7441,11.1012 -8.86772,12.7536 -13.2567,31.611 -14.5252,46.9063 -1.38425,16.6784 0.188977,36.2221 6.84449,51.7193 7.39607,17.2228 17.6693,26.5099 37.076,23.7484l158.509 -27.1087 9.32481 23.3587c0.333071,0.83504 1.30512,1.37599 2.02087,1.85906 5.15079,3.47599 24.926,3.11339 31.1835,3.11339 6.69213,0 23.2984,0.324803 32.537,-0.917717z"/>
   <path id="_86656264" class="fil0" d="M1437.33 1100.07c37.2248,23.6717 70.102,53.6209 97.1068,88.3253 50.1638,64.4646 80.1201,145.336 80.1201,232.858l0 338.716 0 32.0008 -32.0008 0 -124.043 0 0 -332.244c0,-8.84174 -7.15985,-16.0016 -16.0016,-16.0016 -8.84174,0 -16.0016,7.15985 -16.0016,16.0016l0 332.244 -303.447 0 314.267 -691.9z"/>
   <path id="_86655872" class="fil0" d="M925.605 1791.97l-304.115 0 0 -332.244c0,-8.84174 -7.15985,-16.0016 -16.0016,-16.0016 -8.84174,0 -16.0016,7.15985 -16.0016,16.0016l0 332.244 -124.041 0 -32.0008 0 0 -32.0008 0 -338.716c0,-89.8914 31.65,-172.794 84.365,-238.118 25.9169,-32.1177 56.5796,-61.1351 91.3123,-83.83l316.483 692.664z"/>
   <path id="_86720776" class="fil0" d="M1132.28 456.147c-17.3965,-2.69173 -33.6839,9.22796 -36.3756,26.6244 -2.69173,17.3965 9.22796,33.6839 26.6244,36.3756 0.0531496,0.00826772 6.64843,1.02047 15.6461,3.58701 1.09843,-1.25669 2.1626,-2.53229 3.17953,-3.83268 28.389,8.30552 47.2772,29.0847 60.6969,53.7166 7.76812,3.77835 17.0362,4.4067 25.6984,0.970867 16.3606,-6.48898 24.365,-25.0146 17.876,-41.3752 -24.9,-62.615 -113.092,-76.0276 -113.346,-76.0666z"/>
   <path id="_86718536" class="fil1" d="M793.691 549.116c-7.33819,18.9898 -13.8272,37.9713 -18.3036,57.9461l-4.3004 19.1929 -12.9732 -14.7839c-16.4126,-18.7063 -26.1579,-42.378 -31.5733,-66.4406 -10.7622,-47.8146 -6.54686,-103.038 5.61378,-150.242l1.96181 -7.6193 7.86733 0.115748c47.3422,0.694489 86.6764,-15.0886 129.829,-32.276 23.0008,-9.16182 45.8374,-18.0626 69.5682,-25.2248 28.9347,-8.7319 58.2036,-14.6646 88.2887,-17.6622 21.4477,-2.1378 43.4221,-2.92914 64.9441,-1.56378 20.4555,1.29685 44.7059,4.73504 63.0402,14.348 11.8158,6.19607 21.2079,15.7536 22.5827,29.537 0.257481,2.58071 0.237402,5.20394 0.0744095,7.79056 -0.758268,12.0413 8.48268,22.513 20.5229,23.2677 3.33662,0.209055 6.6815,-0.337796 9.77009,-1.62047l1.07362 -0.445276 1.14685 -0.187795c3.19961,-0.523229 6.21497,-1.7504 8.8819,-3.59292 2.56181,-1.76929 5.18268,-3.49252 7.88268,-5.04449 9.1819,-5.27953 20.5878,-9.99686 31.3949,-8.79804 8.15788,0.903544 14.5784,5.89607 19.1114,12.5055l1.13976 1.66181 0.445276 1.34291c14.2488,42.9744 24.8292,89.7922 20.661,135.298 -2.32205,25.3477 -9.32363,49.4197 -21.4335,71.8406l-10.265 19.0028 -7.84843 -20.1213c-6.05788,-15.5315 -14.3457,-31.6914 -24.0177,-45.2977l-1.09134 -1.53662 -0.458268 -1.82953c-0.236221,-0.943702 -0.53504,-1.87087 -0.894095,-2.77559 -10.4811,-26.3941 -34.2059,-43.9819 -59.3162,-55.3371 -10.1374,-4.58504 -20.7579,-8.28544 -31.5071,-11.1543 -5.21457,-1.39252 -10.285,-2.2878 -15.4488,-3.52441 -0.742914,-0.177165 -1.43858,-0.432284 -2.1626,-0.617717 -11.7248,-2.98229 -23.7343,4.19292 -26.7225,15.9047 -0.279921,1.09843 -0.141732,1.1126 -0.852757,2.84764 -12.8705,31.4528 -79.5071,42.3437 -108.806,46.3134 -6.76418,0.916536 -13.5484,1.68662 -20.3445,2.32205 -24.2835,2.27244 -49.0052,2.93977 -73.3725,1.83307 -19.3063,-0.876379 -40.2343,-2.81575 -58.989,-7.62284 -3.84567,-0.986221 -7.70197,-2.15433 -11.3764,-3.6626 -11.139,-4.57087 -24.0024,0.785434 -28.5815,11.9256 -0.744095,1.81063 -1.24606,3.70985 -1.48465,5.65276l-1.00039 8.12953 -2.67756 0.20315z"/>
   <path id="_86716744" class="fil1" d="M892.967 982.974l262.066 0 0 58.8839 -81.0449 35.7201 -7.73741 -18.1642 -8.37284 -1.60276c-10.2567,-1.96181 -23.3445,-1.69252 -33.8906,-1.69252 -10.539,0 -22.728,-0.348425 -33.0756,1.30276l-8.47442 1.35354 -7.72678 16.9477 -81.743 -35.6292 0 -57.1193z"/>
   <path id="_86718200" class="fil1" d="M971.397 1150.63l-145.751 24.9272c-27.0307,4.62284 -44.2311,-9.35198 -54.4748,-33.2055 -7.72678,-17.9917 -9.69686,-39.9603 -8.0882,-59.3552 0.891733,-10.7445 3.06969,-22.4965 6.8563,-33.4477l-36.4772 -0.0389764 -36.9803 10.0323c-20.9138,5.67402 -40.8827,13.6878 -59.8205,23.5937l323.87 708.832 127.638 0 321.528 -707.891c-25.7658,-13.5036 -53.2453,-24.1418 -82.0123,-31.4799 -1.43268,-0.36378 -5.76969,-1.10315 -9.94371,-1.81063l-4.34174 -0.650788 -36.4299 -0.0389764c4.07835,11.4957 6.39449,23.9421 7.32402,35.2193 1.62756,19.7374 -0.322441,42.2303 -8.2004,60.5374 -10.135,23.5536 -27.0107,37.539 -53.7957,32.8359l-147.271 -25.8579 -5.80394 21.6957 -10.5673 1.42087c-11.0988,1.49291 -23.439,1.06063 -34.6701,1.06063 -11.5394,0 -30.5776,0.597638 -40.128,-5.84646 -3.62362,-2.41536 -6.27166,-5.02441 -7.93583,-9.19371l-4.52599 -11.3386zm52.6016 86.6363c11.5925,0 22.089,4.69843 29.687,12.2976 7.59804,7.59804 12.2976,18.0957 12.2976,29.6858 0,11.5925 -4.69961,22.089 -12.2976,29.687 -7.59804,7.59804 -18.0945,12.2976 -29.687,12.2976 -11.5925,0 -22.089,-4.69961 -29.687,-12.2976 -7.59804,-7.59804 -12.2976,-18.0945 -12.2976,-29.687 0,-11.5902 4.69961,-22.0878 12.2976,-29.6858 7.59804,-7.59922 18.0945,-12.2976 29.687,-12.2976zm0 285.425c11.5925,0 22.089,4.70079 29.687,12.2976 7.59804,7.59804 12.2976,18.0957 12.2976,29.687 0,11.5925 -4.69961,22.089 -12.2976,29.687 -7.59804,7.59804 -18.0945,12.2976 -29.687,12.2976 -11.5925,0 -22.089,-4.69961 -29.687,-12.2976 -7.59804,-7.59804 -12.2976,-18.0945 -12.2976,-29.687 0,-11.5913 4.69961,-22.089 12.2976,-29.687 7.59804,-7.59686 18.0945,-12.2976 29.687,-12.2976zm0 -142.713c11.5925,0 22.089,4.70079 29.687,12.2976 7.59804,7.59804 12.2976,18.0957 12.2976,29.687 0,11.5913 -4.70079,22.0878 -12.2976,29.6858 -7.59804,7.59804 -18.0957,12.2976 -29.687,12.2976 -11.5913,0 -22.089,-4.69961 -29.687,-12.2976 -7.59686,-7.59804 -12.2976,-18.0945 -12.2976,-29.6858 0,-11.5913 4.69961,-22.089 12.2976,-29.687 7.59804,-7.59686 18.0945,-12.2976 29.687,-12.2976z"/>
  </g>
 </g>
 <rect class="fil2" width="2048" height="2048"/>
</svg>
