<svg width="19" height="18" viewBox="0 0 19 18" fill="none" xmlns="http://www.w3.org/2000/svg">
<path d="M9.62789 1C12.2009 1 14.773 1 17.346 1C18.0396 1 18.2549 1.21008 18.2549 1.89934C18.2566 5.65727 18.2566 9.41521 18.2549 13.1731C18.2549 13.9093 18.0388 14.1176 17.2939 14.1185C16.6029 14.1185 16.6064 14.1185 16.6064 14.8277C16.6064 15.1741 16.6151 15.5231 16.5804 15.8668C16.4849 16.8347 15.7192 17.5292 14.7496 17.5396C14.2001 17.5457 13.6506 17.5127 13.102 17.5379C12.2183 17.5778 11.6071 17.1655 11.1948 16.4285C10.8285 15.7739 10.4864 15.1064 10.16 14.431C10.0411 14.1853 9.89873 14.1115 9.63223 14.1124C7.05923 14.1228 4.4871 14.1194 1.91409 14.1185C1.22657 14.1185 1 13.8954 1 13.2166C1 9.44386 1 5.67116 1 1.89934C1 1.20921 1.21268 1.00087 1.90802 1.00087C4.48102 1.00087 7.05315 1.00087 9.62615 1.00087L9.62789 1ZM9.4317 3.30129C7.52452 3.30129 5.61734 3.30737 3.71016 3.29522C3.41154 3.29348 3.28653 3.33168 3.28827 3.68325C3.30563 6.28403 3.30042 8.88481 3.29174 11.4856C3.29174 11.7339 3.32733 11.8346 3.6138 11.8328C6.09913 11.8207 8.58445 11.8207 11.0689 11.8328C11.3536 11.8346 11.404 11.7356 11.3962 11.4847C11.3797 10.9509 11.3892 10.4152 11.391 9.88137C11.3936 9.21382 11.6913 8.8362 12.2157 8.82925C12.7478 8.82318 13.0534 9.19472 13.0577 9.85967C13.0603 10.2356 13.0629 10.6114 13.056 10.9864C13.0525 11.18 13.0612 11.2608 13.3242 11.2773C13.8242 11.3094 14.2964 11.575 14.8268 11.4639C14.9206 11.4439 15.0465 11.582 15.1593 11.6445C15.26 11.7009 15.2756 11.9075 15.4562 11.8215C15.6307 11.7382 15.5699 11.5715 15.5699 11.4378C15.5734 8.85182 15.5673 6.26493 15.5786 3.67891C15.5795 3.37942 15.5031 3.29174 15.1958 3.29435C13.2738 3.3091 11.3528 3.30216 9.43084 3.30129H9.4317ZM11.3502 12.904C11.4028 12.5041 11.2489 12.3045 10.8884 12.3051C8.37264 12.3051 5.85693 12.2973 3.34209 12.3129C2.94711 12.3155 2.81516 12.2078 2.81777 11.7998C2.83339 8.9803 2.83339 6.16076 2.81777 3.34209C2.81516 2.94017 2.93409 2.82732 3.33602 2.82819C7.39865 2.84208 11.4613 2.84294 15.5239 2.82819C15.9501 2.82645 16.0595 2.96013 16.0569 3.37161C16.0404 6.04618 16.0474 8.72074 16.0517 11.3953C16.0517 11.5438 15.9658 11.7399 16.1403 11.8346C16.5873 12.0759 16.616 12.4778 16.6099 12.9136C16.5995 13.6367 16.6073 13.6211 17.3373 13.6341C17.6759 13.6402 17.7879 13.5343 17.787 13.1896C17.7775 9.43084 17.7775 5.67116 17.787 1.91236C17.787 1.57207 17.6794 1.46269 17.3373 1.46356C12.1905 1.47224 7.0436 1.47137 1.89673 1.46356C1.57641 1.46356 1.4679 1.5686 1.46877 1.88979C1.47658 5.66335 1.47658 9.43691 1.46877 13.2105C1.46877 13.5325 1.5738 13.635 1.89586 13.6332C4.39681 13.6228 6.89777 13.6246 9.39958 13.6315C9.64439 13.6315 9.74248 13.6081 9.72512 13.3112C9.69473 12.7686 10.134 12.444 10.6713 12.5412C10.9335 12.5889 11.134 12.7478 11.351 12.9023L11.3502 12.904ZM11.8762 11.6627C11.8762 12.299 11.8736 12.9344 11.878 13.5707C11.8788 13.7287 11.8519 13.8676 11.6861 13.9171C11.5307 13.9631 11.45 13.8459 11.3788 13.7339C11.2382 13.5134 11.0889 13.2999 10.8693 13.1514C10.7008 13.0369 10.5159 12.9153 10.3154 13.0603C10.1001 13.2166 10.1895 13.4301 10.2798 13.6081C10.7382 14.5074 11.1913 15.4093 11.68 16.2922C11.9743 16.8234 12.4509 17.0873 13.0777 17.07C13.6115 17.0552 14.1471 17.0752 14.6819 17.07C15.4953 17.063 16.0925 16.5205 16.1186 15.7045C16.1498 14.694 16.1298 13.6818 16.1333 12.6697C16.1333 12.4379 16.0439 12.2547 15.8017 12.2443C15.5335 12.233 15.4267 12.4179 15.4302 12.6723C15.4302 12.7304 15.4302 12.7877 15.4293 12.8459C15.425 12.9926 15.3659 13.1037 15.2079 13.1141C15.0239 13.1263 14.951 13.0065 14.944 12.8433C14.9362 12.6558 14.9406 12.4674 14.9388 12.2799C14.9371 12.0559 14.8156 11.911 14.6038 11.9049C14.3919 11.8988 14.2574 12.0446 14.2418 12.2608C14.227 12.4622 14.2357 12.6653 14.2366 12.8676C14.2366 13.0403 14.1567 13.1549 13.9831 13.1454C13.8329 13.1367 13.7704 13.0195 13.7713 12.8693C13.773 12.6384 13.773 12.4066 13.7713 12.1757C13.7687 11.9266 13.6601 11.7339 13.398 11.7382C13.1575 11.7425 13.0603 11.9292 13.0594 12.161C13.0594 12.378 13.0629 12.595 13.0594 12.8112C13.056 12.9935 13.1002 13.2391 12.8372 13.2513C12.5325 13.2652 12.582 13.0013 12.5811 12.8068C12.5785 11.8094 12.5768 10.812 12.5811 9.8154C12.5828 9.55671 12.529 9.32233 12.2347 9.31712C11.9413 9.31191 11.871 9.53935 11.8736 9.80151C11.8797 10.4231 11.8754 11.0446 11.8754 11.6662L11.8762 11.6627Z" fill="white" stroke="white" stroke-width="0.2" stroke-miterlimit="10"/>
<path d="M5.85286 6.79442C5.84244 6.58608 5.69573 6.49754 5.52385 6.44372C5.27645 6.36732 5.02123 6.31437 4.77643 6.2319C4.42052 6.11211 4.16617 5.88467 4.16877 5.48275C4.17138 5.0843 4.40402 4.84644 4.78164 4.75182C4.91706 4.71796 5.02297 4.68411 5.02557 4.50962C5.02731 4.37507 5.12627 4.30476 5.25909 4.30823C5.37107 4.31083 5.46916 4.37333 5.46743 4.48705C5.46569 4.69713 5.59156 4.74314 5.75823 4.78741C5.89713 4.82387 6.01519 4.91589 6.10547 5.03481C6.2079 5.17024 6.28343 5.3126 6.12283 5.45236C5.96744 5.58692 5.82421 5.53744 5.72351 5.37771C5.53427 5.07735 5.25127 5.07909 4.95786 5.13725C4.8155 5.1659 4.67573 5.23881 4.66358 5.41243C4.65143 5.58171 4.75647 5.67807 4.90838 5.72494C5.16967 5.80567 5.43184 5.8812 5.694 5.96019C6.08898 6.07825 6.35982 6.31003 6.36589 6.75189C6.37197 7.19808 6.14801 7.49757 5.7183 7.60521C5.54469 7.64862 5.48045 7.71806 5.46569 7.8856C5.45614 7.99585 5.36586 8.05922 5.25127 8.06009C5.13755 8.06009 5.02991 7.99585 5.03512 7.89081C5.04727 7.63386 4.86064 7.6408 4.70091 7.58698C4.47347 7.51059 4.29638 7.36128 4.18874 7.14686C4.11322 6.99582 4.08717 6.83175 4.27555 6.73713C4.43788 6.65553 4.54205 6.74321 4.62365 6.88557C4.84241 7.2684 5.18009 7.3092 5.55858 7.18506C5.7374 7.1269 5.83636 6.98714 5.85199 6.79355L5.85286 6.79442Z" fill="white"/>
<path d="M10.1146 6.29708C9.21875 6.29708 8.32289 6.29708 7.42615 6.29708C7.36799 6.29708 7.3107 6.29882 7.25254 6.29795C7.07979 6.29621 6.91833 6.25889 6.92093 6.04707C6.92353 5.83352 7.085 5.80835 7.25861 5.80835C9.18055 5.81009 11.1025 5.80922 13.0253 5.80835C13.1989 5.80835 13.3612 5.8422 13.3586 6.05315C13.356 6.26409 13.1894 6.29535 13.0192 6.29535C12.0513 6.29535 11.0825 6.29535 10.1146 6.29535V6.29708Z" fill="white"/>
<path d="M10.6236 7.80223C9.52461 7.80223 8.42649 7.80223 7.32749 7.80223C7.13825 7.80223 6.89952 7.82827 6.90039 7.56698C6.90039 7.30308 7.14433 7.33433 7.3301 7.33433C9.52722 7.33433 11.7252 7.33346 13.9223 7.3352C14.0899 7.3352 14.3086 7.297 14.3216 7.54875C14.3364 7.83348 14.1055 7.80136 13.9197 7.80136C12.8207 7.80223 11.7226 7.80136 10.6236 7.80136V7.80223Z" fill="white"/>
<path d="M10.3884 4.76747C9.36321 4.76747 8.338 4.76747 7.31279 4.76747C7.14004 4.76747 6.9317 4.79525 6.92128 4.54611C6.91087 4.29523 7.114 4.30131 7.29196 4.30131C9.37102 4.30131 11.4509 4.30131 13.53 4.30131C13.708 4.30131 13.9224 4.29263 13.925 4.52528C13.9285 4.79091 13.6976 4.76747 13.5074 4.76747C12.4675 4.76747 11.4284 4.76747 10.3884 4.76747Z" fill="white"/>
<path d="M6.66216 8.84315C7.42868 8.84315 8.19433 8.84402 8.96085 8.84229C9.14228 8.84229 9.34194 8.84055 9.34715 9.0758C9.35235 9.31192 9.15096 9.32581 8.9704 9.32581C7.43823 9.32581 5.90606 9.32581 4.37389 9.32581C4.19767 9.32581 3.99367 9.32755 3.98933 9.08622C3.98499 8.84142 4.18378 8.84315 4.36347 8.84402C5.12999 8.84489 5.89564 8.84402 6.66216 8.84402V8.84315Z" fill="white"/>
<path d="M6.9577 10.364C7.78064 10.364 8.60358 10.3606 9.4274 10.3666C9.61577 10.3675 9.88748 10.2998 9.88227 10.6097C9.87793 10.8797 9.634 10.8354 9.45083 10.8354C7.77543 10.8363 6.1009 10.8363 4.42549 10.8354C4.24406 10.8354 3.9984 10.884 3.99232 10.6123C3.98537 10.3015 4.25622 10.3675 4.44546 10.3666C5.28316 10.3606 6.12086 10.364 6.95856 10.364H6.9577Z" fill="white"/>
<path d="M12.2657 7.97327C13.0235 7.98976 13.7058 8.63822 13.7215 9.35613C13.7249 9.51933 13.7336 9.69468 13.5096 9.70857C13.3256 9.71985 13.2865 9.5879 13.2536 9.42991C13.1181 8.78753 12.7657 8.46113 12.231 8.45853C11.6919 8.45679 11.3273 8.78666 11.2023 9.42123C11.1667 9.60179 11.1172 9.73895 10.9115 9.70509C10.724 9.67471 10.7292 9.51325 10.7309 9.36481C10.7431 8.61304 11.4662 7.95677 12.2657 7.97413V7.97327Z" fill="white"/>
<path d="M17.1583 7.5376C17.1583 7.98467 17.1557 8.4326 17.1601 8.87966C17.1618 9.07151 17.1219 9.25294 16.8997 9.24599C16.7095 9.23992 16.6661 9.07151 16.667 8.89529C16.6705 8.00029 16.6687 7.10617 16.6687 6.21117C16.6687 6.04189 16.6896 5.87435 16.9057 5.87175C17.1557 5.86828 17.1566 6.06099 17.1566 6.23982C17.1583 6.67299 17.1566 7.1053 17.1566 7.53847L17.1583 7.5376Z" fill="white"/>
</svg>
