<svg width="19" height="17" viewBox="0 0 19 17" fill="none" xmlns="http://www.w3.org/2000/svg">
<path d="M9.37435 16.5023C6.5409 16.5023 3.70635 16.5023 0.872902 16.5023C0.118652 16.5023 0.00406812 16.3866 0.00184319 15.6323C-0.000381737 14.8169 -0.000381737 14.0026 0.000730727 13.1871C0.00184319 12.3083 0.0875029 12.2215 0.9441 12.2204C1.74062 12.2204 2.53826 12.1971 3.33256 12.2304C3.72637 12.2471 3.82093 12.1303 3.81982 11.7421C3.80424 8.1488 3.81092 4.55554 3.81092 0.962281C3.81092 0.115696 3.9255 0 4.7643 0C7.85695 0 10.9507 0 14.0434 0C14.8076 0 14.9367 0.131271 14.9378 0.90777C14.9378 4.50103 14.9467 8.09429 14.9278 11.6875C14.9255 12.1247 15.0346 12.2527 15.4729 12.2315C16.2861 12.1937 17.1026 12.2193 17.917 12.2215C18.6056 12.2238 18.7435 12.3528 18.7469 13.0214C18.7524 13.9102 18.7513 14.7991 18.7469 15.6891C18.7435 16.3632 18.6045 16.5034 17.9292 16.5034C15.0768 16.5056 12.2245 16.5034 9.37213 16.5034L9.37435 16.5023ZM13.8153 9.36249C13.8153 7.52915 13.8109 5.69693 13.8198 3.86359C13.8209 3.57768 13.7897 3.41304 13.4549 3.30624C12.536 3.01255 11.9141 2.36955 11.6182 1.44954C11.5325 1.18366 11.4224 1.10913 11.1565 1.11135C9.97174 1.1247 8.78697 1.12248 7.6022 1.11135C7.34744 1.10913 7.21951 1.16141 7.13274 1.43842C6.8435 2.36065 6.22163 3.00254 5.30385 3.30291C4.98234 3.40859 4.92672 3.55543 4.92783 3.85246C4.93673 7.53694 4.93673 11.2214 4.92783 14.9048C4.92783 15.2408 4.97678 15.3843 5.37059 15.382C8.03606 15.3631 10.7026 15.3642 13.3681 15.382C13.7419 15.3843 13.8264 15.2708 13.8231 14.9159C13.8064 13.0648 13.8153 11.2136 13.8153 9.36138V9.36249ZM2.4259 15.3387C2.86755 15.3387 3.45827 15.5122 3.71191 15.2942C4.0145 15.0327 3.77532 14.4253 3.81203 13.9692C3.81759 13.8958 3.80424 13.8201 3.81426 13.7478C3.85653 13.4463 3.7553 13.3206 3.42601 13.3373C2.89091 13.364 2.34803 13.3918 1.8185 13.3329C1.21554 13.2661 1.09873 13.4997 1.11653 14.0549C1.15769 15.3742 1.12988 15.3742 2.42701 15.3398L2.4259 15.3387ZM16.3206 15.3398C17.1883 15.3613 17.6218 14.9326 17.621 14.0538C17.621 13.9981 17.6133 13.9414 17.621 13.8869C17.6833 13.4786 17.5632 13.2895 17.0982 13.3318C16.5842 13.3785 16.0591 13.3829 15.5452 13.3318C15.0168 13.2784 14.8688 13.4797 14.9311 13.9692C14.989 14.4231 14.7342 15.0327 15.0335 15.2942C15.2838 15.5133 15.8767 15.3387 16.3183 15.3387L16.3206 15.3398ZM6.01471 1.13249C5.24192 1.10876 4.89483 1.45881 4.97344 2.18265C5.55749 1.99242 5.77887 1.77438 6.01471 1.13249ZM13.7964 2.23383C13.8476 0.967843 13.8053 0.928907 12.7151 1.20814C12.9253 1.6865 13.2446 2.0347 13.7964 2.23383Z" fill="white"/>
<path d="M9.388 1.93239C9.57935 1.93239 9.77069 1.93016 9.96203 1.93239C10.3269 1.93795 10.4371 2.05031 10.4415 2.42409C10.4448 2.73892 10.4526 3.05486 10.4382 3.36969C10.4293 3.55658 10.4816 3.61554 10.6773 3.61666C11.1513 3.61888 11.2703 3.85027 11.0311 4.26633C10.605 5.00724 10.179 5.74702 9.74955 6.4857C9.50704 6.90287 9.24894 6.90732 9.00754 6.4946C8.57034 5.74702 8.13871 4.99722 7.70818 4.24742C7.48235 3.85472 7.61251 3.61109 8.06417 3.61888C8.28889 3.62222 8.32337 3.54101 8.31559 3.34855C8.30224 3.0226 8.31114 2.69554 8.31114 2.36958C8.31114 2.08034 8.45353 1.93127 8.74611 1.9335C8.9597 1.93461 9.17441 1.9335 9.388 1.9335V1.93239ZM8.53252 4.30305C8.8251 4.80699 9.09097 5.26533 9.37688 5.75815C9.66946 5.25198 9.932 4.79698 10.2134 4.30861C9.80406 4.30861 9.73509 4.07054 9.74844 3.75238C9.76179 3.44867 9.74288 3.14386 9.754 2.84016C9.76068 2.66216 9.7006 2.5943 9.52261 2.61321C9.42249 2.62434 9.31903 2.62545 9.21891 2.61321C9.02979 2.58985 8.99085 2.68107 8.99642 2.84794C9.00531 3.1739 8.99197 3.50096 9.00087 3.82691C9.00976 4.12728 8.89296 4.30193 8.53141 4.30305H8.53252Z" fill="white"/>
<path d="M12.8337 11.0634C12.8282 12.9713 11.2763 14.5221 9.37174 14.5243C7.47499 14.5265 5.91086 12.9591 5.91309 11.0601C5.91531 9.11775 7.48611 7.54806 9.40289 7.57142C11.3108 7.59479 12.8393 9.15001 12.8337 11.0634ZM11.7124 11.049C11.7146 9.76965 10.6666 8.70947 9.38843 8.69946C8.11577 8.68945 7.0478 9.74295 7.03445 11.0201C7.0211 12.3294 8.07906 13.3941 9.3862 13.3863C10.6755 13.3785 11.709 12.3394 11.7124 11.049Z" fill="white"/>
<path d="M10.1512 11.3049C10.1356 11.177 10.258 10.979 10.0689 10.9289C9.88533 10.8811 9.86975 11.1002 9.80857 11.2215C9.27125 12.2794 8.78065 12.3495 7.89402 11.504C7.80724 11.4217 7.6604 11.405 7.55472 11.3394C7.34668 11.2103 7.26659 10.9645 7.43791 10.8299C7.68487 10.6363 7.87399 10.4305 8.0175 10.1535C8.08425 10.0245 8.25223 9.97885 8.41131 10.0411C8.55927 10.099 8.66162 10.208 8.6783 10.366C8.6872 10.4516 8.64493 10.5418 8.62824 10.6307C8.59153 10.8243 8.47695 11.0924 8.70278 11.1747C8.96309 11.2693 8.98423 10.9578 9.06655 10.7932C9.54157 9.84313 10.0722 9.76748 10.8254 10.5562C10.8954 10.6296 10.9678 10.6541 11.0545 10.6841C11.138 10.7131 11.2247 10.762 11.2815 10.8277C11.4083 10.9723 11.4183 11.227 11.2737 11.2626C10.871 11.3628 10.9032 12.0625 10.3637 11.9045C10.0578 11.8144 10.0822 11.5585 10.1512 11.3038V11.3049Z" fill="white"/>
</svg>
