<svg width="25" height="17" viewBox="0 0 25 17" fill="none" xmlns="http://www.w3.org/2000/svg">
	<path d="M10.3029 16.3376C7.15171 16.3376 4.00057 16.3376 0.849421 16.3376C0.170579 16.3376 0.00130213 16.1735 0.00130213 15.4973C-0.000434042 12.5345 -0.000434042 9.57172 0.00130213 6.60808C0.00130213 5.95007 0.170579 5.77992 0.824246 5.77992C3.3252 5.77819 5.82615 5.76777 8.32623 5.78947C8.73944 5.79294 8.82017 5.6636 8.81062 5.28338C8.78545 4.22866 8.79847 3.17307 8.80368 2.11834C8.80976 0.852676 9.66135 0.00282127 10.9288 0.00195319C14.6442 -0.000651063 18.3587 -0.000651063 22.0741 0.00195319C23.3476 0.00195319 24.2061 0.83271 24.2139 2.10793C24.2278 4.36234 24.2295 6.61762 24.2139 8.87204C24.2052 10.1429 23.3432 10.9607 22.0619 10.9641C21.6861 10.965 21.3093 10.9815 20.9352 10.958C20.6678 10.9407 20.5957 11.0232 20.5983 11.2914C20.6122 12.6933 20.6053 14.0953 20.6053 15.4973C20.6053 16.1622 20.4299 16.3367 19.7572 16.3367C16.606 16.3367 13.4549 16.3367 10.3037 16.3367L10.3029 16.3376ZM16.4906 9.78179C18.3413 9.78179 20.1921 9.78526 22.0428 9.78006C22.7095 9.77832 23.0212 9.458 23.029 8.79478C23.0307 8.66457 23.0107 8.53088 23.0333 8.40501C23.1071 7.99962 22.9179 7.94145 22.555 7.94319C19.0419 7.95708 15.5279 7.95187 12.0147 7.951C11.8854 7.951 11.7543 7.95187 11.6267 7.93451C11.302 7.8885 11.1536 7.68103 11.1458 7.36678C11.1354 6.95618 11.3732 6.76954 11.9106 6.76954C15.4671 6.76867 19.0245 6.76433 22.581 6.77648C22.9274 6.77735 23.0472 6.71051 23.0403 6.33637C23.0151 4.99257 23.0307 3.64791 23.0298 2.30325C23.0298 1.4612 22.759 1.18949 21.9135 1.18949C18.3135 1.18776 14.7127 1.18776 11.1128 1.18949C10.2595 1.18949 9.99556 1.45426 9.99556 2.29804C9.99556 4.42311 9.99643 6.54818 9.99643 8.67325C9.99643 9.51616 10.2603 9.78179 11.1128 9.78266C12.9054 9.7844 14.6988 9.78266 16.4914 9.78266L16.4906 9.78179ZM6.9373 15.1518C6.60395 14.4911 6.39648 13.8757 6.33485 13.2264C6.14387 11.2028 6.63 9.4198 8.36096 8.19233C8.75941 7.9102 8.81062 7.6437 8.81062 7.24525C8.81062 7.00305 8.72034 6.96139 8.50593 6.96225C6.1647 6.96833 3.82435 6.97094 1.48312 6.96052C1.20794 6.95965 1.18624 7.07424 1.18624 7.2956C1.19145 9.80957 1.19231 12.3235 1.18363 14.8375C1.18363 15.0832 1.25134 15.1639 1.50048 15.157C2.06387 15.1405 2.62726 15.1518 3.19064 15.1518C4.41725 15.1518 5.64385 15.1518 6.93643 15.1518H6.9373ZM8.8167 9.32692C7.30971 10.5136 7.01716 13.3062 8.23856 14.992C8.35228 15.1492 8.49551 15.15 8.65697 15.15C9.75597 15.15 10.855 15.1431 11.9531 15.1578C12.1918 15.1613 12.3255 15.0684 12.441 14.8818C13.1493 13.7359 13.2882 12.5102 12.9766 11.215C12.9253 11.0015 12.809 10.9546 12.6059 10.958C11.9991 10.9693 11.3914 10.958 10.7846 10.9615C10.3645 10.9633 9.99209 10.8226 9.65267 10.5874C9.21862 10.287 8.97643 9.85037 8.8167 9.32518V9.32692ZM16.534 15.1509C17.3864 15.1509 18.2389 15.1431 19.0913 15.1561C19.3275 15.1596 19.416 15.1084 19.4134 14.8514C19.3995 13.6673 19.3995 12.4824 19.4134 11.2975C19.416 11.0379 19.3552 10.9528 19.0801 10.9554C17.5635 10.9693 16.0461 10.9711 14.5287 10.9554C14.211 10.952 14.1467 11.0423 14.2066 11.3426C14.4445 12.5371 14.3282 13.7029 13.8212 14.8115C13.6676 15.1474 13.7874 15.157 14.0643 15.1535C14.8881 15.1431 15.711 15.15 16.5348 15.15L16.534 15.1509Z" fill="white"/>
	<path d="M19.7532 3.73294C19.393 3.73294 19.031 3.74509 18.6716 3.72947C18.2879 3.71297 18.0735 3.48467 18.0865 3.12441C18.1004 2.74159 18.3122 2.5428 18.6907 2.53932C19.4121 2.53238 20.1334 2.53064 20.8548 2.53932C21.2663 2.54453 21.4929 2.77371 21.4877 3.14438C21.4824 3.50984 21.2559 3.72166 20.8357 3.73207C20.4755 3.74075 20.1143 3.73381 19.7541 3.73381L19.7532 3.73294Z" fill="white"/>
	<path d="M3.77915 14.5102C3.35986 14.5102 2.94144 14.5146 2.52216 14.5094C2.11676 14.5042 1.90842 14.2733 1.89801 13.887C1.88151 13.2949 1.88238 12.702 1.89627 12.11C1.90582 11.7115 2.16624 11.4572 2.52216 11.491C2.89196 11.5266 3.09162 11.7385 3.08815 12.1239C3.08555 12.4268 3.10117 12.7315 3.08294 13.0336C3.06905 13.2645 3.15239 13.3305 3.37722 13.3236C3.88245 13.3088 4.38854 13.3123 4.89377 13.3201C5.37816 13.327 5.61862 13.5415 5.60994 13.9356C5.60212 14.3158 5.37295 14.5059 4.90592 14.5102C4.53004 14.5137 4.15503 14.5102 3.77915 14.5102Z" fill="white"/>
	<path d="M3.76797 7.61248C4.15774 7.61248 4.54838 7.6064 4.93815 7.61422C5.38782 7.6229 5.62307 7.84079 5.61265 8.22188C5.60224 8.58647 5.37654 8.787 4.9477 8.79308C4.45637 8.80002 3.96329 8.81999 3.47456 8.78526C3.1282 8.76096 3.05181 8.88857 3.08132 9.20021C3.10736 9.47192 3.09608 9.74884 3.08566 10.0232C3.07003 10.4121 2.85649 10.6299 2.4971 10.6256C2.1108 10.6213 1.90507 10.4051 1.89638 10.0318C1.8825 9.42504 1.88076 8.81825 1.89986 8.21146C1.91201 7.84079 2.13077 7.62637 2.51099 7.61769C2.92941 7.60814 3.34869 7.61509 3.76797 7.61509C3.76797 7.61422 3.76797 7.61335 3.76797 7.61248Z" fill="white"/>
	<path d="M16.8553 14.5112C16.4508 14.5112 16.0463 14.5164 15.6417 14.5095C15.2346 14.5025 14.9881 14.2751 14.9863 13.9227C14.9846 13.5676 15.2225 13.3358 15.6348 13.3237C16.0966 13.3107 16.5636 13.2829 17.0211 13.3289C17.4647 13.374 17.5689 13.203 17.5168 12.8063C17.4873 12.5789 17.5012 12.3445 17.5133 12.1136C17.5342 11.716 17.7868 11.4538 18.1357 11.4886C18.5029 11.525 18.7078 11.7351 18.7069 12.1197C18.7052 12.6978 18.7139 13.2759 18.7043 13.8532C18.6965 14.2951 18.4812 14.4999 18.0264 14.5086C17.6366 14.5164 17.246 14.5104 16.8562 14.5104L16.8553 14.5112Z" fill="white"/>
</svg>
